<svg xmlns="http://www.w3.org/2000/svg" viewBox="-140 -140 280 280">
  <!-- Hexágono dividido en 6 triángulos -->
  <g stroke="black" stroke-width="2" fill="none">
    <polygon points="0,-100 86.6,-50 86.6,50 0,100 -86.6,50 -86.6,-50"/>
    <line x1="0" y1="-100" x2="0" y2="100"/>
    <line x1="-86.6" y1="-50" x2="86.6" y2="50"/>
    <line x1="-86.6" y1="50" x2="86.6" y2="-50"/>
  </g>
  
  <!-- Círculos llenos pequeños en el centro de cada triángulo -->
  <g fill="black">
    <circle cx="33.33" cy="-50" r="5"/>
    <circle cx="57.73" cy="0" r="5"/>
    <circle cx="33.33" cy="50" r="5"/>
    <circle cx="-33.33" cy="50" r="5"/>
    <circle cx="-57.73" cy="0" r="5"/>
    <circle cx="-33.33" cy="-50" r="5"/>
  </g>
  
  <!-- Cruceta en los puntos cardinales NSEO -->
  <g stroke="black" stroke-width="10" stroke-linecap="round">
    <line x1="0" y1="-110" x2="0" y2="-130"/>   <!-- Norte -->
    <line x1="110" y1="0" x2="130" y2="0"/>   <!-- Este -->
    <line x1="0" y1="110" x2="0" y2="130"/>    <!-- Sur -->
    <line x1="-110" y1="0" x2="-130" y2="0"/>  <!-- Oeste -->
  </g>
  
  <!-- Círculos vacíos en las direcciones NE, SE, NO, SO -->
  <g fill="none" stroke="black" stroke-width="2">
    <circle cx="95" cy="-95" r="5"/>
    <circle cx="95" cy="95" r="5"/>
    <circle cx="-95" cy="95" r="5"/>
    <circle cx="-95" cy="-95" r="5"/>
  </g>
</svg>
